<svg width="33" height="19" viewBox="0 0 33 19"><path d="M14 5.182H8.75v5.182H14V5.182zm1.75 8.636v1.727H7v-1.727h8.75zm0-10.363v8.636H7V3.46h8.75zm8.75 10.363v1.727h-7v-1.727h7zm0-3.454v1.727h-7v-1.72h7zm0-3.455v1.72h-7V6.91h7zm0-3.46v1.73h-7V3.45h7zm-21 12.96V3.45H1.75v12.96c0 .233.087.435.26.606a.85.85 0 0 0 .615.257.846.846 0 0 0 .615-.257.825.825 0 0 0 .26-.607zm22.75 0V1.72h-21v14.69c0 .296-.05.584-.15.863h20.275a.846.846 0 0 0 .615-.257.825.825 0 0 0 .26-.607zM28 0v16.41c0 .72-.255 1.33-.766 1.834-.51.504-1.13.756-1.86.756H2.624a2.546 2.546 0 0 1-1.857-.756A2.482 2.482 0 0 1 0 16.41V1.726h3.5V0H28z"/></svg>