<svg width="33" height="19" viewBox="0 0 33 19"><path d="M12.857 3.905l-.016 15.04-3.78-1.31-.03-17.6 4.83 1.36c3.1.884 4.99 2.604 4.96 5.62-.03 3.505-1.64 4.866-4.38 3.583v-6.5c0-.96-1.57-1.66-1.57-.193zm-4.6 6.825l-.57.184-5.51 1.993c-1.16.536-2.127.883-2.133 1.757.03 1.106 1.748 1.644 4.265 2.068 1.34.27 2.71.09 3.88-.16v-2.085s-2.18.852-2.69.923l-1.05-.006c-.78-.004-1.14-.506-.37-.775l4.16-1.59v-2.31z"/><path d="M18.048 11.668c-1.447-.005-3.45.393-4.443.86V14.9l2.62-.966 2.073-.665c2.16-.36 3.02.4.915 1.04l-5.608 2.06-.006 2.3 8.19-2.97c.9-.32 2.17-.96 2.18-1.75-.22-1.22-2.04-1.94-4.87-2.24a10.42 10.42 0 0 0-1.06-.06z"/></svg>