<svg width="33" height="19" viewBox="0 0 33 19" xmlns="http://www.w3.org/2000/svg"><title>icon-V+</title><path d="M12.47 19L4.64 1.995c-.19-.4-.362-.74-.514-.913-.247-.284-.57-.38-1.48-.38H2V0h10.298v.703h-.36c-.76 0-.894.02-1.16.057-.456.075-.703.342-.703.74 0 .342.152.76.59 1.748l4.37 9.804L19.1 3.874c.286-.645.76-1.69.76-2.26 0-.704-.456-.912-2.166-.912h-.15V0h5.927v.703h-.19c-.68 0-.87.02-1.12.076-.4.11-.59.36-.97 1.21L13.48 19h-1.01zm8.96-5.77v-1.855h3.77V7.63h1.838v3.745h3.77v1.854h-3.77V17H25.2v-3.77h-3.77z" fill="#231F20" fill-rule="evenodd"/></svg>