<svg width="400" height="400" viewBox="0 0 400 400" xmlns="http://www.w3.org/2000/svg" xmlns:xlink="http://www.w3.org/1999/xlink"><title>icon-tweakers</title><defs><path id="a" d="M399.855 399.688H0V.145h399.855v399.543z"/></defs><g fill="none" fill-rule="evenodd"><path fill="#FFF" d="M123 125h152v132H123z"/><mask id="b" fill="#fff"><use xlink:href="#a"/></mask><path d="M388.12 132.504c.088.29.14.478.14.478l-108.93 147.17c-6.12 7.78-12.655 12.742-23.58 12.612h-107c-14.244.005-20.254-3.96-26.234-18.92L90.12 169.382a29.03 29.03 0 0 1 2.296-27.777L200.856.165c-.31 0-.617-.02-.93-.02C89.513.145 0 89.652 0 200.073 0 310.488 89.512 400 199.927 400c110.42 0 199.928-89.512 199.928-199.927 0-23.72-4.15-46.463-11.736-67.57" fill="#C6D633" mask="url(#b)"/><path d="M134.4 133.63h132.556v43.05h-44.514v73.284h-43.04V176.68H134.4v-43.05zm-44.28 35.752l32.394 104.462c5.98 14.96 11.99 18.925 26.234 18.92H255.75c10.925.13 17.46-4.832 23.58-12.613l108.93-147.16s-.052-.187-.14-.478C360.513 55.617 287.152.56 200.856.167l-108.44 141.44a29.03 29.03 0 0 0-2.298 27.774z" fill="#000"/></g></svg>