<svg width="400" height="400" viewBox="0 0 400 400" xmlns="http://www.w3.org/2000/svg" xmlns:xlink="http://www.w3.org/1999/xlink"><title>icon-nvb</title><defs><path id="a" d="M397.448 399.822H.178V.11h397.27z"/></defs><g fill="none" fill-rule="evenodd"><mask id="b" fill="#fff"><use xlink:href="#a"/></mask><path d="M397.448 200.047c0 110.445-88.97 199.953-198.723 199.953C88.97 400 0 310.492 0 200.047 0 89.624 88.97.11 198.725.11c109.753 0 198.723 89.514 198.723 199.937" fill="#EA862E" mask="url(#b)"/><path d="M237.12 79.636c0 21.33-17.21 38.622-38.395 38.622-21.215 0-38.38-17.292-38.38-38.622S177.51 41 198.725 41c21.186 0 38.395 17.305 38.395 38.636m62.083 222.687l.07-.053c-22.276-22.394-36.06-53.33-36.06-87.51 0-34.153 13.772-65.044 35.99-87.43 3.588-3.523 5.857-8.435 5.857-13.87 0-10.636-8.612-19.288-19.218-19.288a19.08 19.08 0 0 0-13.54 5.612l-.027-.042c-29.353 29.396-47.505 70.062-47.505 115.02 0 44.488 17.782 84.782 46.615 114.1 3.505 3.985 8.61 6.5 14.325 6.5 10.59 0 19.19-8.627 19.19-19.326a19.288 19.288 0 0 0-5.697-13.713M172.078 214.76c0-44.82-18.075-85.415-47.25-114.793-3.52-3.656-8.404-5.952-13.843-5.952-10.61 0-19.185 8.652-19.185 19.306 0 5.33 2.125 10.15 5.588 13.64l-.048.04c22.424 22.39 36.326 53.466 36.326 87.768 0 34.256-13.85 65.267-36.212 87.664l.045.044a19.218 19.218 0 0 0-5.65 13.654c0 10.647 8.59 19.314 19.2 19.314 5.447 0 10.36-2.3 13.862-5.98 29.155-29.36 47.158-69.885 47.158-114.69" fill="#FFF"/></g></svg>