<svg width="400" height="400" viewBox="0 0 400 400" xmlns="http://www.w3.org/2000/svg"><title>Icon-carsom</title><g fill="none" fill-rule="evenodd"><path d="M90.214 0C40.396 0 0 40.4 0 90.206v219.59c0 49.812 40.396 90.208 90.214 90.208H309.79c49.814 0 90.21-40.396 90.21-90.207V90.207C400 40.4 359.604 0 309.79 0H90.214z" fill="#FFF"/><path d="M352.736 160.237h-15.173c.015.046.05.095.068.137l-.07 54.245c0 .14.018.29.018.43 0 17.934-8.824 32.475-19.713 32.475h-.07c.114.696.21 1.403.21 2.15V278c0 7.362-5.964 13.328-13.333 13.328h-12.4c-7.365 0-13.332-5.965-13.332-13.327v-28.32c0-.79.1-1.54.223-2.28l-2.13-.01H126.66l-2.132.01c.132.74.23 1.495.23 2.285v28.324c0 7.36-5.973 13.327-13.335 13.327h-12.4c-7.363 0-13.333-5.963-13.333-13.325v-28.33c0-.744.098-1.46.22-2.154-.065 0-.118.007-.175.007-10.514 0-19.07-13.558-19.653-30.625l-.023-.042v-.616c-.01-.39-.04-.797-.04-1.197 0-.405.025-.802.032-1.2V160.37c.022-.04.048-.09.067-.136H50.95c-7.993 0-14.47-6.48-14.47-14.47s6.477-14.47 14.47-14.47h17.003c3.793 0 7.21 1.494 9.793 3.876 9.346-20.77 21.634-52.92 28.606-65.57 3.093-5.632 9.41-12.45 16.428-12.366H280.9c7.02-.083 13.337 6.734 16.437 12.368 6.967 12.647 19.26 44.797 28.605 65.57 2.58-2.383 6-3.876 9.793-3.876h17c7.988 0 14.465 6.48 14.465 14.47s-6.476 14.47-14.465 14.47zM308.79 0H89.214C39.396 0-1 40.4-1 90.206v219.59c0 49.812 40.396 90.208 90.214 90.208h89.847V335.27H60.52c-7.872 0-14.247-5.713-14.247-12.738v-3.02c0-7.038 6.375-12.754 14.247-12.754H337.5c7.863 0 14.245 5.716 14.245 12.753v3.03c0 7.024-6.382 12.737-14.246 12.737H217.04v64.735h91.75c49.814 0 90.21-40.396 90.21-90.207V90.21C399 40.4 358.604 0 308.79 0zm-32.346 77.35H127.25c-1.576.693-3.777 3.71-4.503 5.022-10.41 18.87-18.485 46.253-27.5 65.45h213.195c-9.01-19.197-17.09-46.58-27.495-65.45-.726-1.312-2.934-4.33-4.503-5.02zm-154.23 95.694c-11.403 0-20.65 9.252-20.65 20.655s9.247 20.65 20.65 20.65c11.41 0 20.66-9.25 20.66-20.66 0-11.4-9.25-20.653-20.66-20.653zM295.602 193.7c0 11.406-9.252 20.658-20.663 20.658-11.41 0-20.66-9.252-20.66-20.66 0-11.402 9.25-20.654 20.652-20.654 11.41 0 20.662 9.252 20.662 20.655z" fill="#6CB744"/></g></svg>