<svg width="400" height="400" viewBox="0 0 400 400" xmlns="http://www.w3.org/2000/svg"><title>Icon-autotrack</title><g fill="none" fill-rule="evenodd"><circle fill="#FFF101" cx="199.05" cy="200" r="172.447"/><path d="M200.325 177.303H109.54c7.617-16.23 14.44-39.374 23.242-55.328.617-1.12 2.477-3.67 3.814-4.25h126.122c1.327.58 3.196 3.13 3.813 4.25 8.8 15.954 15.63 39.1 23.24 55.328h-89.44zm61.127 56.26c-9.646 0-17.462-7.827-17.462-17.463 0-9.65 7.816-17.46 17.462-17.46 9.64 0 17.462 7.81 17.462 17.46 0 9.636-7.822 17.462-17.462 17.462zm-129.116 0c-9.64 0-17.462-7.827-17.462-17.463 0-9.65 7.822-17.46 17.462-17.46 9.646 0 17.463 7.81 17.463 17.46 0 9.636-7.82 17.462-17.47 17.462zm194.886-70.23h-14.376c-3.206 0-6.1 1.262-8.282 3.276-7.896-17.56-18.292-44.75-24.175-55.43-2.63-4.768-7.97-10.52-13.9-10.47H132.82c-5.934-.05-11.28 5.702-13.9 10.47-5.887 10.68-16.275 37.87-24.175 55.422-2.185-2.015-5.076-3.277-8.28-3.277H72.09c-6.758 0-12.233 5.47-12.233 12.23 0 6.76 5.475 12.233 12.234 12.233h12.83l-.05.125v45.21c-.01.333-.037.672-.037 1.02 0 .34.028.664.037 1.002v.53l.02.017c.485 14.43 7.722 25.9 16.606 25.9.05 0 .1-.01.1-.01-.048.59-.13 1.204-.13 1.835v23.937c0 6.22 5.046 11.274 11.263 11.274h10.492c6.22 0 11.27-5.052 11.27-11.273V263.42c0-.673-.085-1.31-.196-1.94l1.8-.01H263.22l1.795.01c-.102.63-.184 1.267-.184 1.94v23.938c0 6.22 5.05 11.274 11.276 11.274h10.483c6.216 0 11.27-5.053 11.27-11.274V263.42c0-.63-.086-1.235-.183-1.824h.06c9.206 0 16.67-12.292 16.67-27.45 0-.124-.02-.25-.02-.38l.067-45.85c-.01-.04-.04-.083-.06-.125h12.84c6.745 0 12.23-5.47 12.23-12.23s-5.485-12.23-12.23-12.23z" fill="#070807"/><path d="M399.416 199.692C399.416 89.402 310.01 0 199.716 0 89.416 0 0 89.402 0 199.692 0 310.01 89.417 399.407 199.715 399.407h171.722c15.392 0 27.98-12.59 27.98-27.975v-171.74zM199.71 371.452c-94.854 0-171.75-76.892-171.75-171.747 0-94.854 76.896-171.75 171.75-171.75 94.85 0 171.746 76.896 171.746 171.75 0 94.855-76.896 171.746-171.746 171.746z" fill="#070807"/></g></svg>